<?xml version="1.0" encoding="UTF-8"?>
<svg version="1.1" viewBox="341 219 674 328" xmlns="http://www.w3.org/2000/svg">
<path transform="translate(734,252)" d="m0 0 2 1-10 5-29 13-34 17h-2l4 17 1 7v22l-3 18-5 15-9 16-12 14-14 11-14 8-20 7 4 7 13 18 14 19 13 19 9 12 12 17 13 18 9 12v2h-69l-16-23-13-18-13-19-13-18-24-34-1-1h-29l-7 11-15 30-12 29-8 26-4 16-1 1h-110l8-16 13-22 14-22 13-18 10-13 9-11 11-13 11-12 12-13 12-12 8-7 13-12 14-11 11-9 18-13 15-10 19-12 27-15 24-12 36-15 35-12 36-10zm-129 71-17 12-17 14-12 11-8 7-13 13 1 2 17-1 13-3 16-8 10-9 6-8 4-9 2-10v-11z" fill="#191717"/>
<path transform="translate(398,219)" d="m0 0h154l21 2 21 5 16 6 16 9 11 9 9 9v2l-26 10-27 12-7 1-9-5-11-4-20-3h-78l-13-1v103l-14 14-8 7-16 17-8 9-9 11-3 1v-213z" fill="#1A1818"/>
<path transform="translate(963,450)" d="m0 0h28l3 8 21 63v4h-22l-3-10v-4l-24 1-4 13h-22l1-7 20-61zm14 14-7 27v3h15l-2-11-4-18z" fill="#1A1818"/>
<path transform="translate(682,450)" d="m0 0h45v16l-1 1h-24v11h23v16l-1 1h-22v13h24l1 1v16h-45z" fill="#191717"/>
<path transform="translate(787,449)" d="m0 0h13l12 3 5 2-3 10-3 6-5-1-6-2h-14l1 6 8 5 14 7 6 7 2 4v11l-4 9-8 7-9 3h-19l-11-3-2-2v-17l6 1 10 3h14l2-2-1-5-19-10-8-7-3-7v-10l2-7 8-7 7-3z" fill="#1A1818"/>
<path transform="translate(851,450)" d="m0 0h58v17h-19v58h-20l-1-1v-54l1-3h-19z" fill="#1F1D1D"/>
</svg>
